<?xml version="1.0" encoding="UTF-8"?><svg id="_イヤー_2" xmlns="http://www.w3.org/2000/svg" viewBox="0 0 630.43 52.06"><g id="_イヤー_1-2"><g><path d="M33.18,40.46c-2.21,2.69-4.65,4.66-7.34,5.97-1.07,.54-2.45,1.01-4.12,1.55-2.27,.72-3.7,1.07-4.36,1.07-.54,0-.84-.12-.84-.36-.06-.24,.18-.48,.72-.72,.9-.36,2.15-.96,3.88-1.79,1.73-.78,3.16-1.67,4.36-2.57,1.85-1.37,3.28-3.04,4.24-4.95,1.13-2.27,1.67-4.42,1.67-6.45,0-3.7-.72-6.5-2.15-8.41-2.03-2.63-4.83-4-8.41-4.06-.06,2.98-.54,5.37-1.31,7.1-1.31,3.04-3.16,5.73-5.55,8.12,0,.42,.06,1.85,.24,4.36,.06,.6,.12,1.31,.24,2.21,.06,.66,.12,1.13,.12,1.43-.06,1.31-.72,1.97-1.97,2.03-1.13,.06-1.73-.54-1.85-1.79-.06-.83-.12-1.91-.12-3.22v-1.25c-1.13,1.25-2.27,2.27-3.4,3.16-1.19,.89-2.27,1.31-3.22,1.31-2.09,0-3.28-1.13-3.76-3.46-.12-.72-.24-1.43-.24-2.21,0-3.04,.95-6.03,2.86-8.83,2.03-2.98,4.95-5.49,8.71-7.46,.06-.54,.18-1.43,.42-2.69,.18-.78,.3-1.67,.48-2.8-2.09,.3-3.4,.48-3.94,.48-1.25,0-2.27-.3-3.1-.96-1.19-.9-1.79-1.67-1.79-2.45,0-.18,.06-.3,.24-.3,.06,0,.3,.12,.66,.3,1.13,.66,2.09,.96,2.92,.96,.96,0,2.63-.36,5.01-1.07,.24-1.37,.36-2.63,.36-3.7,0-1.55-.24-2.62-.78-3.22-.3-.36-.72-.66-1.19-.83-.48-.18-.72-.36-.72-.6s.36-.42,1.01-.6c.48-.12,.95-.18,1.49-.18,1.13,0,2.09,.36,2.86,1.13,.78,.78,1.19,1.49,1.19,2.21,0,.18-.18,1.13-.48,2.8-.06,.24-.12,.78-.3,1.61,.54-.36,1.07-.66,1.55-.84,.66-.3,1.25-.42,1.73-.42,1.37,.06,2.09,.42,2.09,1.13,0,.66-.6,1.37-1.85,2.09-.54,.36-1.91,.96-4,1.79-.3,1.97-.6,3.58-.78,4.89,1.97-.66,3.7-1.07,5.07-1.19,.66-.06,1.25-.12,1.79-.12,1.97,0,4.06,.48,6.15,1.37,2.57,1.13,4.54,2.8,5.91,5.01s2.03,4.71,2.03,7.52c0,3.34-.84,5.97-2.45,7.88ZM4.24,31.63c-.78,2.15-1.19,4-1.19,5.61,0,1.43,.48,2.15,1.43,2.15,1.01,0,2.51-.83,4.36-2.69l1.79-1.79c.18-2.57,.42-6.5,.72-11.88-3.4,2.09-5.73,4.95-7.1,8.59Zm10.03-10.09c-.48,3.76-.78,7.22-.84,10.44,1.79-1.97,3.28-4.06,4.42-6.15,.84-1.55,1.49-3.52,2.03-5.91-1.73,.24-3.58,.78-5.61,1.61Z"/><path d="M94.11,45.06c-.42,0-.78-.24-1.31-.78l-1.25-1.25c-.72-.6-1.85-1.49-3.46-2.69-.54-.3-1.91-.9-4.18-1.79,.06,.89,.12,1.61,.12,2.27,0,1.67-.24,3.04-.66,4.06-1.01,2.57-3.46,3.88-7.4,3.88-3.58,0-5.61-1.43-6.03-4.36-.06-.42-.06-.78-.06-1.07,0-1.25,.6-2.45,1.85-3.7,1.13-1.13,2.51-1.97,4.24-2.57,1.49-.48,2.98-.78,4.48-.9,.06-6.15,.24-10.14,.54-12.11,.24-1.43,.66-2.63,1.31-3.64,.54-.89,1.31-1.61,2.33-2.21,1.43-.83,2.69-1.43,3.82-1.79-1.25-.66-2.63-1.01-4.12-1.01-.48,0-.95,.06-1.37,.12-1.37,.24-3.1,.9-5.13,1.97-2.09,1.13-3.76,2.27-5.07,3.4-3.22,2.92-5.31,5.61-6.39,8.12l-2.33,5.37c-.6,1.31-1.37,1.97-2.27,1.97-.36,0-.66-.12-.9-.42-.9-.9-1.37-1.85-1.37-2.75s.6-1.97,1.79-3.22c.48-.54,1.25-1.25,2.09-2.39,2.27-2.98,4.54-7.76,7.04-14.2-1.61,.18-2.98,.3-4.12,.3s-2.39-.12-3.7-.36c-1.13-.18-2.09-.66-2.92-1.31-1.01-.78-1.49-1.37-1.55-1.73,0-.24,.12-.3,.36-.3,.06,0,.12,0,.6,.12,2.03,.48,2.86,.66,4.77,.66,2.63,0,5.07-.3,7.28-.9,.36-.9,.54-1.91,.54-3.04,0-.42,0-.72-.06-1.01-.06-.24-.42-.6-1.07-1.07-.3-.3-.48-.54-.42-.78,.06-.42,.6-.66,1.61-.72,1.97-.06,3.34,.24,4.18,.96,.48,.42,.72,.83,.72,1.31,0,.18-.18,.66-.6,1.31-.42,.66-.78,1.43-1.07,2.27,1.73,.18,2.8,.36,3.28,.66,.78,.42,1.13,.83,1.19,1.37,.06,.36-.12,.66-.54,.84-.6,.3-1.25,.48-2.03,.66s-1.97,.36-3.52,.66c-1.01,2.33-2.33,5.25-3.94,8.89,1.37-1.19,3.28-2.68,5.79-4.42,2.21-1.55,3.94-2.62,5.19-3.16,2.33-1.07,4.54-1.61,6.62-1.61,2.86,0,5.13,.6,6.8,1.85,.9,.66,1.31,1.37,1.31,2.27,0,1.25-.66,1.85-1.91,1.85-.42,0-.96-.12-1.67-.36-.78-.18-1.31-.3-1.67-.3-3.4-.06-5.67,1.07-6.74,3.34-.36,.72-.48,1.91-.42,3.52,.18,3.1,.24,4.77,.24,4.95,.18,2.09,.42,4.06,.78,5.91,.78,.18,1.91,.42,3.46,.78,.84,.24,2.03,.6,3.52,1.13,3.58,1.67,5.37,3.34,5.37,5.01,0,1.43-.66,2.15-1.97,2.15Zm-13.67-6.98c-2.98-.24-5.31,.66-7.04,2.62-.42,.54-.66,1.13-.66,1.85,0,.66,.24,1.25,.72,1.79,.42,.54,1.01,.9,1.67,1.01,.3,.06,.72,.06,1.13,.06,1.61,0,2.86-.48,3.64-1.37,.54-.54,.78-1.49,.78-2.75,0-.54-.06-1.61-.24-3.22Z"/><path d="M154.03,45.47c-1.07,.3-2.51,.42-4.3,.42-3.16,0-5.55-.3-7.28-.96-1.49-.54-2.81-1.43-3.94-2.69-.95-1.07-1.43-2.75-1.49-5.01-.06-3.04,1.79-6.39,5.67-9.91,.96-.9,2.57-2.15,4.65-3.88,.9-.78,1.37-1.43,1.37-1.97s-.42-1.07-1.19-1.73c-.66-.54-1.31-.9-1.97-1.13-.78-.3-1.67-.48-2.57-.48s-1.67,.12-2.33,.42c-1.37,.6-2.8,1.73-4.36,3.4-2.33,2.45-4.71,5.79-7.04,9.97-1.25,2.15-2.33,4.71-3.4,7.76-.84,2.45-1.67,5.13-2.21,8-.18,.9-.72,1.37-1.61,1.37-.72,0-1.37-.3-1.91-1.01-.54-.66-.84-1.31-.84-2.09,0-.42,.12-.83,.3-1.19,1.49-2.69,3.16-6.56,5.07-11.64,1.67-4.6,3.34-10.09,4.95-16.59-1.31,.36-2.69,.84-4.18,1.37-.66,.24-1.25,.6-1.79,.95-1.01,.72-1.61,1.01-1.79,1.01-.6-.06-1.07-.36-1.49-.89-1.07-1.37-1.79-2.63-2.15-3.7-.18-.54-.24-1.01-.24-1.55s.06-.96,.24-1.25c.3-.66,.6-1.01,.9-1.01,.12,0,.3,.24,.48,.72,.18,.48,.6,1.13,1.13,1.91,.48,.48,1.13,.72,2.03,.72,.42,0,1.31-.18,2.81-.48,1.49-.3,2.92-.72,4.36-1.37,.06-.42,.18-1.07,.36-2.09,.18-.9,.24-1.55,.24-2.09,0-1.37-.36-2.51-1.07-3.4-.42-.54-.84-1.13-1.31-1.79-.54-.42-.78-.72-.78-.95s.24-.36,.78-.36c.48,0,1.01,.06,1.55,.24,.84,.24,1.67,.66,2.45,1.25,1.73,1.25,2.51,2.33,2.51,2.8,0,.12-.06,.36-.42,1.85-.12,.66-.3,1.49-.6,2.57,.66,.06,1.73,.36,3.16,.9,.78,.42,1.19,.83,1.19,1.37,0,.6-.72,1.13-2.15,1.61-.6,.12-1.67,.42-3.28,.9l-1.49,5.85c-.12,.54-.96,3.04-2.33,7.58,3.1-4.12,5.67-7.16,7.64-9.01,2.33-2.21,4.36-3.52,6.09-3.88,.84-.18,1.61-.3,2.27-.3,.9,0,1.73,.18,2.57,.48,1.67,.54,3.04,1.31,4.18,2.21,.78,.66,1.55,1.61,2.33,2.8,.48,.72,.72,1.37,.72,2.03,0,.78-.24,1.37-.72,1.79-.24,.12-.54,.18-.84,.18-.24,0-.6-.06-1.01-.12-.42-.06-.78-.06-1.01-.06-2.81,0-5.31,.96-7.4,2.92-1.97,1.79-3.22,3.4-3.82,4.89-.36,.83-.54,1.67-.54,2.57,0,1.37,.36,2.51,1.01,3.4,1.37,1.85,3.76,2.75,7.1,2.75,.54,0,2.09-.12,4.6-.42,.9-.12,1.55-.12,1.97,.06,1.37,.54,2.03,1.31,2.03,2.39,0,.78-.6,1.31-1.85,1.61Z"/><path d="M210.61,36.52c-2.21,2.21-4.48,3.82-6.86,4.83-2.09,.89-4.12,1.61-6.09,2.03-2.33,.54-4.24,.84-5.73,.9-.72,.06-1.07-.12-1.07-.48,0-.3,.36-.54,1.07-.72,2.21-.54,3.94-1.07,5.19-1.49,1.97-.72,3.82-1.61,5.55-2.63,3.7-2.09,6.03-4.89,7.04-8.35,.54-1.85,.78-3.58,.78-5.25,0-2.51-.54-4.89-1.61-7.1-1.13-2.39-2.75-4.12-4.83-5.31-1.61-.9-3.52-1.43-5.85-1.43-.6,0-1.13,.06-1.61,.12,.48,.9,.84,1.67,1.13,2.21,.42,.96,.6,1.85,.6,2.69,0,1.19-.18,2.33-.6,3.4-1.49,4-2.8,6.98-4.06,8.95-1.85,2.92-3.88,5.61-6.21,8.06-.54,.6-1.31,1.25-2.33,1.91-.6,.42-1.13,.6-1.61,.6-1.25,0-2.33-1.25-3.22-3.82-.48-1.37-.78-2.86-1.07-4.54-.24-1.61-.42-3.1-.42-4.36,0-1.07,.06-2.27,.24-3.52,.36-2.45,1.79-4.83,4.24-7.04,2.45-2.21,5.25-3.82,8.53-4.83,2.09-.66,4.24-.96,6.33-.96,1.97,0,3.94,.3,5.91,.83,2.69,.78,4.89,2.15,6.74,4.12,1.49,1.61,2.51,3.46,3.16,5.61,.54,1.85,.78,3.46,.78,4.95,0,4.36-1.37,7.88-4.12,10.62Zm-15.04-24.71c-2.57,.3-4.89,1.13-6.98,2.51-2.33,1.55-4.12,3.34-5.31,5.31-.84,1.43-1.25,3.34-1.25,5.79,0,1.79,.24,3.7,.72,5.73,.42,1.73,.96,2.57,1.73,2.57,.66,0,1.55-.54,2.63-1.55,1.55-1.43,2.98-3.28,4.36-5.55,2.98-4.95,4.48-9.31,4.48-12.95,0-.54-.12-1.13-.36-1.85Z"/><path d="M276.44,13.79c-.3-.06-2.57-.06-6.86,0-3.46,0-8.24,.12-14.32,.24-4.48,.06-7.76,.18-9.73,.3-3.64,.18-6.86,.54-9.67,.96-.42-.72-.84-1.49-1.31-2.57,1.97,.12,4.3,.12,6.92,.06,2.45-.06,6.21-.06,11.34-.24l.06-6.03c0-1.79-.06-3.16-.18-4.06,.78,.3,2.03,.66,3.76,1.13,1.85,.48,2.86,.96,3.04,1.37,.18,.66-.42,1.31-1.79,2.21,.06,1.25,.06,2.92,0,5.19,2.51-.06,6.39-.18,11.58-.3l2.92-3.58c1.49,.84,2.92,1.79,4.3,2.87,1.13,.89,1.61,1.37,1.49,1.91-.06,.42-.6,.6-1.55,.54Zm-10.8,25.36c-.18,1.85-.3,3.82-.42,5.61,1.19,1.13,1.67,1.97,1.43,2.33-.12,.12-.84,.24-2.09,.3-3.16,.06-5.79,.18-8,.3l-6.5,.42c-.18,.9-.42,1.61-.9,2.57-.42,.89-1.01,1.37-1.61,1.31-.48-.06-.72-.42-.78-1.13,.06-.78,.06-1.79,0-3.28-.06-3.58-.24-6.39-.48-8.47-.06-.78-.3-2.03-.72-3.58,.48,.18,1.31,.42,2.57,.83,1.19,.42,1.97,.6,2.27,.72l4.83-.18c1.13-.06,3.04-.06,5.67-.18,.48-.6,1.25-1.49,2.39-2.57,1.25,.96,2.27,1.73,2.92,2.33,.9,.6,1.31,1.13,1.13,1.49-.18,.42-.72,.84-1.73,1.19Zm-3.1-8.83c-1.01,0-2.69,.06-4.95,.12-1.31,.06-3.4,.12-6.27,.24-.78,.06-1.91,.18-3.28,.3l-1.07-1.91c2.75,.06,3.88,.06,4,.06,1.43-.06,3.7-.18,6.86-.36,1.13-1.19,2.03-2.09,2.57-2.63,.9,.42,1.97,1.07,3.1,1.91,1.13,.78,1.61,1.43,1.43,1.85-.12,.24-.9,.36-2.39,.42Zm.42-7.76c-1.07-.06-2.81-.06-5.13,0-1.31,.06-3.4,.24-6.21,.42-.66,.06-1.73,.06-3.34,.18l-1.07-1.91c2.75,.06,3.88,.06,4.06,.06,1.43-.06,3.7-.18,6.86-.36,.54-.66,1.37-1.37,2.51-2.57,.9,.48,1.97,1.13,3.1,1.79,1.13,.72,1.61,1.37,1.55,1.79-.06,.36-.84,.54-2.33,.6Zm-8.06,15.93c-1.01,.06-2.75,.18-5.19,.3,.12,1.55,.24,4.18,.42,7.64,.9,0,2.33-.06,4.24-.12,1.49-.06,3.52-.18,6.21-.36,.06-.18,.18-2.63,.42-7.76-1.91,.06-3.94,.18-6.09,.3Z"/><path d="M341.55,19.22h-1.73c-1.07,0-2.62,0-4.65,.06-2.45,.06-5.49,.18-9.25,.3v2.98c1.31,.96,1.91,1.61,1.73,1.97-.06,.24-.36,.36-.9,.42h-1.67c-3.16,0-5.61,.3-7.4,.36-.06,.3-.12,.78-.24,1.37-.18,.3-.48,.66-.9,1.07-.72,.66-1.25,.95-1.61,.89-.36-.06-.48-.54-.42-1.37,.12-1.13,.18-3.58,.24-7.28-1.13,.06-3.04,.18-5.67,.36,0,.9,.06,4.12,.18,9.55,2.69-.18,6.03-.3,10.03-.48,.9-.06,4.18-.24,9.73-.54,.6-.78,1.31-1.61,2.21-2.63,.72,.54,1.67,1.43,3.1,2.51,.42,.36,.72,.66,.72,1.07,0,.12-.06,.24-.18,.3-.18,.12-1.19,.18-3.04,.24-2.69,.06-6.03,.24-10.03,.42l-6.8,.3c1.91,.96,2.92,1.55,2.98,1.85,.06,.3,0,.54-.24,.78-.24,.24-.48,.48-.66,.72v1.85c3.22-.18,8.06-.36,14.56-.66,.48-.78,1.31-1.91,2.45-3.46,.78,.6,2.15,1.67,4,3.16,.66,.54,1.01,.95,1.01,1.25,0,.06,0,.18-.06,.3-.06,.12-.72,.18-1.97,.24-2.86,.06-7.16,.18-12.95,.36-1.73,.06-4.06,.18-7.04,.36,0,.72,.06,1.67,.12,2.8s.12,2.21,.12,2.63c.06,5.49,.12,5.67,.12,5.73,0,.54-.48,1.61-2.21,2.45-1.19,.6-1.91,.78-2.21,.48-.18-.18-.24-1.13-.06-2.92,.3-3.46,.42-7.1,.42-10.92-3.46,.18-8.47,.54-15.04,1.25-1.01,.12-2.45,.36-4.36,.66-.66-1.13-1.13-1.97-1.43-2.63,3.4,.06,8.06-.12,13.96-.48l6.86-.42c0-1.49-.06-3.22-.12-5.25l-4.06,.18c-.18,.6-.54,1.31-1.13,2.09-.78,.96-1.49,1.37-2.21,1.19-.24-.06-.36-.42-.3-1.07l.18-1.97c.24-2.86,.36-6.09,.36-6.56v-2.27c0-1.01,.06-1.79,0-2.27-2.8,.12-6.33,.24-10.68,.6-1.55,.12-3.16,.36-4.77,.66-.3-.66-.72-1.49-1.25-2.51,3.16,.06,5.01,0,5.67,0,2.86-.12,6.5-.24,10.98-.42,0-.66,0-1.37-.06-2.09-.06-.96-.18-2.27-.24-3.94,2.75,.66,4.18,1.19,4.24,1.55,.12,.42-.18,.96-.84,1.67l-.06,2.69c1.19-.06,3.04-.12,5.61-.24,0-.72,0-1.67-.06-2.86-.06-.78-.12-1.91-.24-3.4,.9,.3,1.79,.6,2.75,.9,.95,.3,1.43,.6,1.49,.83,.06,.42-.3,.96-1.01,1.61,.06,.66,.06,1.55,0,2.81l5.07-.24v-3.1c0-1.13-.06-2.51-.18-4.12,1.31,.3,2.27,.6,2.81,.78,.36,.12,1.79,.54,1.79,1.01,0,.42-.36,.96-1.07,1.67-.06,.96-.06,2.15-.12,3.58l9.13-.36,2.62-3.4c1.37,1.01,2.63,1.97,3.82,2.86,1.01,.78,1.43,1.37,1.25,1.79-.12,.24-.54,.36-1.19,.36Zm-7.82-11.1c-.42,0-1.13,0-2.15-.06-.83-.06-1.49,0-2.03,0-1.97,.12-4.18,.18-6.68,.3-.36,.78-.78,1.55-1.19,2.33-.78,1.49-1.55,2.21-2.21,2.09-.36-.06-.48-.83-.12-2.33,.12-.66,.3-1.31,.42-1.97l-3.94,.24c-1.67,.12-3.1,.18-4.36,.24,.06,.54,.06,1.31,0,2.45-.06,.6-.06,1.01-.12,1.31-.12,.54-.36,.78-.66,.84-.66,.12-1.13-.42-1.37-1.67-.18-.9-.42-1.79-.6-2.75-2.39,.18-4.6,.36-6.56,.6-1.19,.18-2.63,.36-4.36,.54l-1.31-2.57c1.25,.18,2.98,.18,5.31,.12,1.79-.06,4-.12,6.62-.24-.36-1.37-.84-3.34-1.49-6.03,.72,.06,1.79,.24,3.28,.54,.54,.12,1.79,.36,2.15,.83,.12,.3-.18,.96-.95,1.91l.06,2.57,8.53-.36c.18-.9,.36-2.45,.6-4.6,.06-.6,.12-1.43,.24-2.45,.78,.3,2.03,.72,3.64,1.43,1.37,.6,2.09,1.13,2.03,1.49-.06,.42-.72,1.01-2.09,1.73l-.9,2.15c1.61-.06,3.16-.18,4.54-.36,.24-.24,1.25-1.31,2.98-3.28,.9,.78,2.09,1.67,3.46,2.8,.83,.66,1.19,1.19,1.13,1.55-.12,.42-.78,.6-1.91,.6Zm-26.5,33.54c-.06,.54-.18,.96-.3,1.25-.6,1.61-1.55,2.98-2.8,4.24-1.61,1.49-2.98,2.09-4.12,1.91-.66-.12-1.01-.24-1.19-.3-.36-.18-.6-.42-.66-.83-.06-.18-.12-.36-.12-.54,0-.78,.42-1.55,1.37-2.03,.84-.42,2.21-.96,3.88-1.91,.72-.42,1.37-1.07,2.15-1.85,.78-.72,1.31-1.01,1.61-.9,.18,.06,.24,.36,.18,.96Zm15.4-21.96l-5.01,.18c-.06,1.49-.06,2.8,0,3.94,1.55-.06,3.22-.12,5.01-.3v-3.82Zm10.26,28.41c-.78,.42-1.61,.36-2.45-.18-.36-.18-.78-.6-1.25-1.19-.66-.78-1.07-1.31-1.25-1.49-1.31-1.31-3.04-2.51-5.19-3.58-1.01-.54-1.43-.96-1.25-1.19,.18-.18,.78-.18,1.79,0,1.25,.24,2.98,.48,5.13,1.07,3.76,1.01,5.61,2.57,5.61,4.24,0,1.13-.36,1.91-1.13,2.33Z"/><path d="M389.12,22.62c-2.27,.72-4.48,1.61-6.5,2.87-1.67,1.01-4.06,2.62-7.4,4.59v6.86c0,1.43-.06,2.45-.12,3.04-.06,.3-.18,.72-.3,1.25-.24,.54-.6,.78-1.13,.84-.6,.06-1.13-.3-1.61-.96-.54-.66-.78-1.31-.72-1.91,.12-.66,.24-1.73,.42-3.1,.18-1.37,.24-2.69,.18-3.94-3.58,2.03-5.85,3.88-6.74,5.55-.54,.96-.83,1.85-.83,2.75,0,2.33,1.61,3.76,4.89,4.24,1.25,.18,2.75,.3,4.36,.3,.83,0,1.67-.06,2.57-.12,.66-.06,1.85-.3,3.58-.66,1.49-.36,2.69-.48,3.58-.48,.78,0,1.55,.3,2.33,.84,.54,.42,.83,1.01,.83,1.67,0,.42-.12,.78-.42,1.01-.42,.36-1.55,.6-3.28,.72-2.69,.18-4.48,.3-5.49,.3-3.88,0-6.98-.3-9.31-.83-2.39-.54-4-1.55-4.83-3.16-.54-.96-.78-2.03-.78-3.28,0-1.85,.54-3.46,1.55-4.83,1.13-1.55,3.82-3.82,8-6.74,.06-.6,.06-1.13,.06-1.67,0-1.61-.18-2.69-.54-3.34-.24-.42-.72-.66-1.37-.66-1.01,0-2.03,.42-2.92,1.19-.06,.06-.78,.89-2.15,2.45-1.37,1.55-2.39,2.33-3.1,2.33-.78,0-1.13-.6-1.13-1.85,0-1.01,.18-1.73,.54-2.21,.24-.3,.72-.72,1.43-1.13s1.19-.78,1.43-1.01c.66-.66,1.55-2.09,2.69-4.3,.6-1.13,1.13-2.86,1.61-5.07-.42,.06-.78,.06-1.19,.06-1.61,0-2.75-.24-3.46-.72-.96-.6-1.61-1.31-1.91-2.21-.18-.6-.3-1.01-.3-1.19,0-.3,.12-.48,.3-.42,.06,0,.36,.18,.9,.6,.54,.42,1.01,.66,1.55,.78,.48,.18,1.13,.24,1.91,.24,.9,0,1.79-.06,2.57-.24,.18-1.01,.24-1.79,.24-2.45,0-1.01-.12-1.67-.42-1.97-.12-.12-.42-.36-.96-.66-.54-.3-.78-.6-.78-.84,0-.3,.24-.54,.78-.72,.36-.12,.78-.18,1.31-.18,.9,0,1.91,.24,2.92,.72,.66,.3,1.07,.78,1.07,1.13,0,.12,0,.18-.18,1.01-.06,.36-.3,2.15-.42,3.16,.3-.06,.95-.3,1.91-.72,.3-.18,.84-.42,1.73-.6,.48,0,.96,.18,1.49,.48,.48,.36,.72,.78,.72,1.25,0,.54-.54,1.07-1.67,1.61-1.37,.6-2.92,1.07-4.71,1.43-1.01,2.57-2.21,5.61-3.58,9.13,.96-.3,1.85-.48,2.69-.48,1.13,0,1.97,.3,2.57,.83,.89,.78,1.43,2.03,1.73,3.76,1.37-.95,2.69-1.91,3.94-2.75,.9-.6,2.21-1.49,3.94-2.8,.3-.42,.78-.96,1.43-1.61,.48-.6,1.01-1.01,1.67-1.25,.66-.18,1.37-.3,2.21-.3,1.19,0,2.09,.24,2.75,.78,.48,.42,.72,.83,.72,1.37,0,.9-.95,1.67-2.8,2.21Z"/><path d="M432.15,6.39c-.36,.3-.66,.6-.96,.89-.06,.78-.06,1.49-.06,2.03,.06,.72,.12,1.79,.18,3.28s.06,2.57,.06,3.34c0,1.43-.48,2.51-1.37,3.22-.6,.54-1.19,.78-1.85,.78-.48,0-.72-.48-.72-1.49v-2.15c-1.61,.06-4.48,.24-8.47,.48,0,6.74-.24,12.41-.48,16.95-.12,2.33-.18,5.85-.54,10.5-.06,.9-.6,1.85-1.49,2.92-.9,1.19-1.79,1.79-2.63,1.73-.48,0-.72-.36-.66-1.07,.12-.66,.3-1.55,.42-2.8,1.49-12.47,2.15-23.87,1.97-34.31-.06-1.79-.3-4.48-.48-8.12,1.79,.66,3.16,1.31,4.18,1.85l8.06-.24,1.79-2.09c1.13,.89,1.85,1.37,2.03,1.55,1.01,.78,1.49,1.43,1.55,1.79,0,.36-.18,.66-.54,.96Zm-4.71-.48c-2.33,.06-5.19,.12-8.47,.3v3.46c.66,0,1.67-.12,3.04-.24,1.13-.12,2.15-.3,3.04-.66,.78,.96,1.07,1.55,1.01,1.85-.06,.24-.54,.42-1.37,.48-1.25,.06-3.16,.18-5.73,.36v3.52c2.62-.18,5.43-.36,8.47-.54V5.91Zm18.02,17.37c-1.01,0-2.63,0-4.77,.06v3.94c0,2.09,.06,3.22,.06,3.28v6.39c.89-.06,2.27-.24,4.18-.42,1.37-.18,2.15-.06,2.21,.3,.06,.3-.66,.66-2.27,1.01-.78,.18-2.09,.42-4.06,.78l.12,7.46c0,1.01-.54,2.03-1.61,2.92-.78,.66-1.43,.89-1.91,.78-.36-.12-.54-.66-.48-1.67,.06-.78,.18-1.85,.24-3.28,.06-1.73,.12-3.64,.12-5.67l-11.34,1.97c-.42,.06-.95,.3-1.67,.6-.78,.36-1.31,.54-1.61,.48-.54-.06-1.43-1.31-2.57-3.64,1.43-.06,2.8-.06,4.18-.12,1.49-.06,2.63-.12,3.34-.18v-14.32l-2.51,.18c-1.01,.06-1.91,.18-2.69,.24-.54-.83-.9-1.55-1.13-2.21,2.09,.06,3.82,.12,5.13,.06,1.07-.06,3.16-.12,6.27-.24,1.13-.06,3.94-.18,8.29-.3,.9-1.01,1.67-1.85,2.33-2.51,.78,.48,1.85,1.25,3.28,2.33,.66,.6,.96,1.07,.78,1.37-.06,.3-.72,.42-1.91,.42Zm-8.24,4.54c0-.84,0-2.27-.06-4.36-.84,.06-2.33,0-4.48,.12-.54,0-1.31,.06-2.21,.12v3.64c1.85-.06,3.34-.3,4.54-.72,.36,.42,.6,.72,.78,1.01,.3,.42,.36,.72,.24,.84-.06,.12-.6,.18-1.49,.24-.89,.06-2.27,.18-4.06,.3v3.16c.54-.06,1.25-.12,2.15-.18,.48-.06,1.25-.24,2.39-.54,.12,.12,.36,.42,.72,.89,.3,.48,.42,.78,.36,.96-.06,.06-.48,.18-1.25,.3-.48,.06-1.13,.06-1.97,.12-.54,.06-1.31,.18-2.39,.24v4.06c1.49-.18,3.76-.36,6.8-.66,0-1.61,0-4.77-.06-9.55Zm17.54-21.42c-.06,1.37-.12,3.7-.06,6.98,.12,5.73,.48,14.32,.84,25.78,.06,1.01,.18,2.51,.24,4.54,0,1.07-.06,1.97-.18,2.69-.12,.89-.72,1.79-1.79,2.8-1.07,.96-2.03,1.43-2.86,1.43-.42,.06-.78-.3-.96-1.01-.12-.54-.24-1.01-.36-1.43s-.96-1.13-2.51-2.15c-1.07-.72-1.55-1.25-1.49-1.55,.06-.24,.24-.42,.6-.48,.36-.06,.78-.06,1.31,0,.6,.06,.72,.06,.9,.06,1.01,0,1.73-.06,2.21-.24,.42-.12,.6-.54,.6-1.25-.06-.9-.06-2.51-.12-4.83-.12-5.79-.18-13.01-.24-21.78-3.46,.18-6.74,.36-9.85,.6,0,.36-.06,.78-.18,1.25-.18,.3-.6,.6-1.13,.9-.54,.36-1.01,.54-1.31,.54-.36,0-.54-.36-.54-1.13,0-.72,.06-1.79,.12-3.28,.06-1.49,.12-2.57,.12-3.28V7.46c0-1.19-.12-3.16-.3-5.91,.3,.18,1.01,.42,2.03,1.01l1.73,1.01c2.09-.12,5.19-.3,9.37-.6,.42-.48,1.13-1.19,2.09-2.21,2.45,2.09,3.7,3.34,3.7,3.82-.06,.54-.72,1.13-1.97,1.79Zm-3.88,.83v-2.51c-3.88,.24-7.28,.48-10.14,.72l.18,3.82c1.25-.06,2.51-.18,3.7-.3,1.43-.18,2.57-.42,3.4-.72,.78,1.01,1.07,1.61,1.01,1.91-.06,.18-.54,.36-1.49,.42l-6.56,.54c0,.78,0,1.97,.06,3.58,.12,0,3.4-.18,9.91-.6l-.06-6.86Z"/><path d="M497.79,27.75c-.72,3.94-1.61,7.4-2.69,10.38-.84,2.27-1.79,3.94-2.86,4.95-.48,.42-1.01,.6-1.55,.6-.42,0-.66-.3-.84-.84s-.42-1.19-.6-1.97c-.12-.36-.3-.84-.54-1.37-.24-.42-.66-.95-1.91-2.57-.96-1.25-1.43-1.79-1.43-1.97,0-.24,.12-.36,.42-.36,.12,0,.36,.06,.72,.24,.66,.42,1.31,.78,1.97,1.19,.89,.48,1.43,.54,1.85,.54,.54,0,1.13-.6,1.49-1.13,1.19-1.85,2.21-4.12,2.75-6.8,.42-2.21,.66-4.18,.66-5.85s-.24-2.75-.66-3.16c-.36-.3-.84-.48-1.37-.48-.48,0-1.73,.36-3.82,1.01-1.01,2.45-2.63,6.15-4.83,11.1-1.37,2.98-2.09,4.66-2.27,4.95-.89,1.91-1.85,3.52-2.75,4.77-1.13,1.61-1.97,2.45-2.57,2.45-.3,0-.54-.12-.78-.3-.66-.48-.96-1.37-.96-2.75,0-.66,.12-1.13,.36-1.43,.42-.36,.78-.72,1.13-1.01,.3-.3,.78-.78,1.31-1.49,1.13-1.43,2.45-3.34,3.64-5.97,1.01-2.09,2.21-5.19,4-9.07-2.51,.84-4.54,1.79-6.09,2.86-.3,.24-.66,.48-1.07,.72h-.18c-.9,0-1.61-.36-2.21-1.07-.96-1.19-1.43-2.15-1.43-2.92,0-.42,.18-.66,.48-.66,.12,0,.48,.12,1.01,.36,.54,.24,.96,.36,1.25,.36,.06,0,1.73-.42,4.95-1.19,.84-.24,2.21-.6,4.06-1.07,1.25-2.92,1.85-5.07,1.85-6.33,0-.66-.18-1.19-.48-1.49-.54-.54-1.31-.96-2.39-1.25-.24-.06-.48-.24-.78-.6,0-.66,.66-1.01,1.97-1.01s2.45,.36,3.58,1.07c.72,.48,1.25,1.01,1.67,1.61,.3,.36,.36,.83,.3,1.49-.06,.36-.24,1.01-.54,2.03-.18,.66-.54,1.73-.95,3.16,.6-.06,1.07-.06,1.43-.06,.9,0,1.61,.06,2.21,.24,1.25,.36,2.33,1.13,3.16,2.33,.48,.66,.72,1.73,.72,3.34,0,1.25-.12,2.75-.42,4.42Zm19.45,4.95c-.3,.24-.54,.36-1.07,.36-.12,0-.42,0-.72-.12-.48-.18-1.19-.3-1.37-.3-.42,0-1.01,0-2.21,.24-1.01,.18-2.51,.54-4.54,1.19-.6,.18-1.31,.42-2.15,.54-.42,.06-.6-.06-.66-.3,0-.12,.24-.3,.66-.54,.42-.24,.96-.48,1.73-.9,.54-.3,1.49-.78,2.87-1.55,1.91-1.13,2.86-2.09,2.86-2.86v-.12c0-.9-.36-2.09-1.13-3.58-1.13-2.27-2.63-4.06-4.36-5.43-.36-.18-.9-.54-1.55-.95-.18-.12-.42-.36-.66-.72,0-.18,.24-.24,.78-.24,.3,0,.96,.18,1.85,.48,2.45,.89,4.48,2.09,6.09,3.58,1.01,.9,1.97,2.15,2.92,3.88,1.07,1.85,1.61,3.4,1.61,4.6,0,1.25-.3,2.21-.96,2.75Z"/><path d="M574.48,21.72c-.42,.06-1.13,.12-2.15,.06-4.54-.3-6.5-.42-6.74-.42-.84,0-2.57,.06-3.76,.12-.36,2.09-1.01,5.13-2.03,9.13-.3,.78-.66,1.55-1.19,2.27-.54,.78-1.19,1.13-1.91,1.13-.18,0-.78-.48-1.79-1.37-.3-.3-1.43-1.07-3.34-2.27-.48-.3-.72-.6-.72-.78,.06-.3,.36-.36,.78-.3,.54,.06,1.07,.06,1.61,.12,.9,.06,1.43,.12,1.73,.12,1.25,0,1.97-.48,2.27-1.49,.66-2.21,1.07-4.18,1.25-6.03-2.69,.36-6.5,1.01-11.46,2.03-.12,1.97-.18,3.76-.18,5.49,0,1.97,.06,3.94,.24,5.97,.24,2.98,2.09,4.89,5.61,5.79,2.15,.54,4.48,.78,6.92,.78,.6,0,1.49-.06,2.75-.24,1.19-.18,2.09-.24,2.75-.24,1.37,0,2.51,.42,3.4,1.25,.54,.54,.78,1.07,.78,1.61,0,1.13-.95,1.73-2.8,1.85-.6,0-1.19,.06-1.73,.06-2.33,0-4.89-.18-7.7-.6-4.24-.6-7.28-1.55-9.13-2.8-1.97-1.31-3.16-4.24-3.46-8.71-.06-1.01-.06-2.21-.06-3.7v-5.55c-1.79,.42-4.3,1.19-7.46,2.27-.3,.12-.72,.3-1.25,.54-.42,.18-.72,.3-1.01,.24-.36,0-1.13-.66-2.33-2.03-1.19-1.37-1.79-2.33-1.79-2.92,0-.42,.18-.6,.54-.6,.18,0,.54,.18,1.01,.48,.3,.24,.84,.54,1.61,.9,.3,.12,.72,.18,1.25,.18,.36,0,1.19-.12,2.51-.36,1.31-.24,3.58-.66,6.8-1.31,0-1.13,0-2.86-.06-5.13-.06-2.15-.3-3.52-.72-4.18-.6-.96-1.79-1.73-3.52-2.39-.54-.18-.78-.42-.78-.66,0-.3,.18-.6,.6-.83,.78-.54,1.73-.78,2.92-.78,.89,0,1.91,.3,3.04,.84,1.31,.66,2.03,1.37,2.15,2.15,0,.18-.06,.48-.12,1.01-.18,.95-.36,1.85-.42,2.69-.24,2.33-.36,4.54-.36,6.62,5.07-.9,9.01-1.55,11.88-2.03,.3-1.61,.84-4.06,1.31-7.22,.12-.72,.12-1.43,.12-2.15,0-1.37-.24-2.27-.78-2.8-.72-.3-1.43-.84-2.21-1.55,0-.48,.6-.78,1.79-.96,.24-.06,.54-.06,.89-.06,1.43,0,2.87,.66,4.36,2.03,.66,.54,.96,1.07,1.01,1.55,0,.18-.12,.48-.36,.89-.3,.54-.54,.84-.6,1.01-.24,.54-.54,1.37-.84,2.51s-.72,3.1-1.19,5.91c1.07-.06,2.39-.24,3.94-.6,.18-.06,.84-.3,1.97-.66,.78-.24,1.31-.36,1.67-.36,3.94,0,5.91,.72,5.97,2.15,0,1.25-.48,2.03-1.49,2.33Z"/><path d="M630.11,12c-.18,.36-.54,.6-1.01,.72-.48,.18-1.13,.18-1.91,.12-2.03-.18-3.46-.3-4.36-.3-1.43,0-2.57,.18-3.46,.6-2.39,1.07-4.12,2.75-5.19,5.07-.95,1.97-1.61,4.24-1.97,6.68-.42,2.92-.66,5.49-.66,7.58,0,2.92,.42,5.01,1.19,6.21,.83,1.37,2.45,2.03,4.83,2.03,1.37,0,2.81-.24,4.3-.66,1.49-.42,2.15-.6,2.27-.6,.54,0,1.13,.36,1.67,1.13,.54,.78,.83,1.37,.83,1.91-.06,1.13-1.07,1.85-3.04,2.03-1.97,.24-3.58,.36-4.77,.36-2.69,0-4.83-.48-6.39-1.43-1.79-1.13-2.98-2.8-3.52-5.07-.3-1.31-.48-3.46-.48-6.39,.06-3.28,.48-6.44,1.43-9.43,.72-2.39,2.45-5.19,5.07-8.35-2.21,.83-5.07,1.97-8.47,3.46-.3,.18-.96,.54-1.97,1.13-1.01,.66-1.79,.96-2.21,.96-1.07,0-2.51-.66-4.24-1.91-1.85-1.37-2.8-2.63-2.8-3.7,0-.42,.18-.66,.54-.66,.18,0,.78,.36,1.85,1.01,1.07,.66,2.21,1.01,3.46,1.01,.9,0,1.79-.12,2.8-.36,1.55-.36,6.8-2.09,15.75-5.13,.78-.24,1.61-.54,2.39-.96l1.25-.72c.78-.42,1.31-.66,1.49-.66,.48,0,1.31,.18,2.57,.48,1.25,.3,2.03,.66,2.39,.96,.54,.54,.78,1.19,.66,1.85-.12,.54-.24,.84-.3,1.01Z"/></g></g></svg>