<?xml version="1.0" encoding="UTF-8"?><svg id="_イヤー_2" xmlns="http://www.w3.org/2000/svg" viewBox="0 0 530.11 90.53"><g id="_イヤー_1-2"><g><path d="M26.36,58.74H0v-5.6H26.36v5.6Z"/><path d="M144.35,23.97c-.52-.1-4.46-.1-11.93,0-6.02,0-14.32,.21-24.91,.42-7.78,.1-13.49,.31-16.92,.52-6.33,.31-11.93,.93-16.81,1.66-.73-1.25-1.45-2.59-2.28-4.46,3.42,.21,7.47,.21,12.04,.1,4.25-.1,10.79-.1,19.72-.42l.1-10.48c0-3.11-.1-5.5-.31-7.06,1.35,.52,3.53,1.14,6.54,1.97,3.22,.83,4.98,1.66,5.29,2.39,.31,1.14-.73,2.28-3.11,3.84,.1,2.18,.1,5.08,0,9.03,4.36-.1,11.1-.31,20.13-.52l5.08-6.23c2.59,1.45,5.08,3.11,7.47,4.98,1.97,1.56,2.8,2.39,2.59,3.32-.1,.73-1.04,1.04-2.7,.93Zm-18.78,44.1c-.31,3.22-.52,6.64-.73,9.75,2.08,1.97,2.91,3.42,2.49,4.05-.21,.21-1.45,.42-3.63,.52-5.5,.1-10.07,.31-13.91,.52l-11.31,.73c-.31,1.56-.73,2.8-1.56,4.46-.73,1.56-1.76,2.39-2.8,2.28-.83-.1-1.25-.73-1.35-1.97,.1-1.35,.1-3.11,0-5.71-.1-6.23-.42-11.1-.83-14.74-.1-1.35-.52-3.53-1.25-6.23,.83,.31,2.28,.73,4.46,1.45,2.08,.73,3.42,1.04,3.94,1.25l8.41-.31c1.97-.1,5.29-.1,9.86-.31,.83-1.04,2.18-2.59,4.15-4.46,2.18,1.66,3.94,3.01,5.08,4.05,1.56,1.04,2.28,1.97,1.97,2.59-.31,.73-1.25,1.45-3.01,2.08Zm-5.4-15.36c-1.76,0-4.67,.1-8.61,.21-2.28,.1-5.92,.21-10.9,.42-1.35,.1-3.32,.31-5.71,.52l-1.87-3.32c4.77,.1,6.75,.1,6.95,.1,2.49-.1,6.43-.31,11.93-.62,1.97-2.08,3.53-3.63,4.46-4.57,1.56,.73,3.42,1.87,5.4,3.32,1.97,1.35,2.8,2.49,2.49,3.22-.21,.42-1.56,.62-4.15,.73Zm.73-13.49c-1.87-.1-4.88-.1-8.92,0-2.28,.1-5.92,.42-10.79,.73-1.14,.1-3.01,.1-5.81,.31l-1.87-3.32c4.77,.1,6.75,.1,7.06,.1,2.49-.1,6.43-.31,11.93-.62,.93-1.14,2.39-2.39,4.36-4.46,1.56,.83,3.42,1.97,5.4,3.11,1.97,1.25,2.8,2.39,2.7,3.11-.1,.62-1.45,.93-4.05,1.04Zm-14.01,27.71c-1.76,.1-4.77,.31-9.03,.52,.21,2.7,.42,7.26,.73,13.28,1.56,0,4.05-.1,7.37-.21,2.59-.1,6.12-.31,10.79-.62,.1-.31,.31-4.57,.73-13.49-3.32,.1-6.85,.31-10.58,.52Z"/><path d="M257.58,33.42h-3.01c-1.87,0-4.57,0-8.09,.1-4.25,.1-9.55,.31-16.08,.52v5.19c2.28,1.66,3.32,2.8,3.01,3.42-.1,.42-.62,.62-1.56,.73h-2.91c-5.5,0-9.75,.52-12.87,.62-.1,.52-.21,1.35-.42,2.39-.31,.52-.83,1.14-1.56,1.87-1.25,1.14-2.18,1.66-2.8,1.56-.62-.1-.83-.93-.73-2.39,.21-1.97,.31-6.23,.42-12.66-1.97,.1-5.29,.31-9.86,.62,0,1.56,.1,7.16,.31,16.6,4.67-.31,10.48-.52,17.43-.83,1.56-.1,7.26-.42,16.92-.93,1.04-1.35,2.28-2.8,3.84-4.57,1.25,.93,2.91,2.49,5.4,4.36,.73,.62,1.25,1.14,1.25,1.87,0,.21-.1,.42-.31,.52-.31,.21-2.08,.31-5.29,.42-4.67,.1-10.48,.42-17.43,.73l-11.83,.52c3.32,1.66,5.08,2.7,5.19,3.22,.1,.52,0,.93-.42,1.35s-.83,.83-1.14,1.25v3.22c5.6-.31,14.01-.62,25.32-1.14,.83-1.35,2.28-3.32,4.25-6.02,1.35,1.04,3.74,2.91,6.95,5.5,1.14,.93,1.76,1.66,1.76,2.18,0,.1,0,.31-.1,.52-.1,.21-1.25,.31-3.42,.42-4.98,.1-12.45,.31-22.52,.62-3.01,.1-7.06,.31-12.25,.62,0,1.25,.1,2.91,.21,4.88,.1,1.97,.21,3.84,.21,4.57,.1,9.55,.21,9.86,.21,9.96,0,.93-.83,2.8-3.84,4.25-2.08,1.04-3.32,1.35-3.84,.83-.31-.31-.42-1.97-.1-5.08,.52-6.02,.73-12.35,.73-18.99-6.02,.31-14.74,.93-26.15,2.18-1.76,.21-4.25,.62-7.58,1.14-1.14-1.97-1.97-3.42-2.49-4.57,5.92,.1,14.01-.21,24.28-.83l11.93-.73c0-2.59-.1-5.6-.21-9.13l-7.06,.31c-.31,1.04-.93,2.28-1.97,3.63-1.35,1.66-2.59,2.39-3.84,2.08-.42-.1-.62-.73-.52-1.87l.31-3.42c.42-4.98,.62-10.59,.62-11.42v-3.94c0-1.76,.1-3.11,0-3.94-4.88,.21-11,.42-18.58,1.04-2.7,.21-5.5,.62-8.3,1.14-.52-1.14-1.25-2.59-2.18-4.36,5.5,.1,8.72,0,9.86,0,4.98-.21,11.31-.42,19.09-.73,0-1.14,0-2.39-.1-3.63-.1-1.66-.31-3.94-.42-6.85,4.77,1.14,7.26,2.08,7.37,2.7,.21,.73-.31,1.66-1.45,2.91l-.1,4.67c2.08-.1,5.29-.21,9.75-.42,0-1.25,0-2.91-.1-4.98-.1-1.35-.21-3.32-.42-5.92,1.56,.52,3.11,1.04,4.77,1.56,1.66,.52,2.49,1.04,2.59,1.45,.1,.73-.52,1.66-1.76,2.8,.1,1.14,.1,2.7,0,4.88l8.82-.42v-5.4c0-1.97-.1-4.36-.31-7.16,2.28,.52,3.94,1.04,4.88,1.35,.62,.21,3.11,.93,3.11,1.76,0,.73-.62,1.66-1.87,2.91-.1,1.66-.1,3.74-.21,6.23l15.88-.62,4.57-5.92c2.39,1.76,4.57,3.42,6.64,4.98,1.76,1.35,2.49,2.39,2.18,3.11-.21,.42-.93,.62-2.08,.62Zm-13.59-19.3c-.73,0-1.97,0-3.74-.1-1.45-.1-2.59,0-3.53,0-3.42,.21-7.26,.31-11.62,.52-.62,1.35-1.35,2.7-2.08,4.05-1.35,2.59-2.7,3.84-3.84,3.63-.62-.1-.83-1.45-.21-4.05,.21-1.14,.52-2.28,.73-3.42l-6.85,.42c-2.91,.21-5.4,.31-7.58,.42,.1,.93,.1,2.28,0,4.25-.1,1.04-.1,1.76-.21,2.28-.21,.93-.62,1.35-1.14,1.45-1.14,.21-1.97-.73-2.39-2.91-.31-1.56-.73-3.11-1.04-4.77-4.15,.31-7.99,.62-11.42,1.04-2.08,.31-4.57,.62-7.58,.93l-2.28-4.46c2.18,.31,5.19,.31,9.24,.21,3.11-.1,6.95-.21,11.52-.42-.62-2.39-1.45-5.81-2.59-10.48,1.25,.1,3.11,.42,5.71,.93,.93,.21,3.11,.62,3.74,1.45,.21,.52-.31,1.66-1.66,3.32l.1,4.46,14.84-.62c.31-1.56,.62-4.25,1.04-7.99,.1-1.04,.21-2.49,.42-4.25,1.35,.52,3.53,1.25,6.33,2.49,2.39,1.04,3.63,1.97,3.53,2.59-.1,.73-1.25,1.76-3.63,3.01l-1.56,3.74c2.8-.1,5.5-.31,7.89-.62,.42-.42,2.18-2.28,5.19-5.71,1.56,1.35,3.63,2.91,6.02,4.88,1.45,1.14,2.08,2.08,1.97,2.7-.21,.73-1.35,1.04-3.32,1.04Zm-46.08,58.32c-.1,.93-.31,1.66-.52,2.18-1.04,2.8-2.7,5.19-4.88,7.37-2.8,2.59-5.19,3.63-7.16,3.32-1.14-.21-1.76-.42-2.08-.52-.62-.31-1.04-.73-1.14-1.45-.1-.31-.21-.62-.21-.93,0-1.35,.73-2.7,2.39-3.53,1.45-.73,3.84-1.66,6.75-3.32,1.25-.73,2.39-1.87,3.74-3.22,1.35-1.25,2.28-1.76,2.8-1.56,.31,.1,.42,.62,.31,1.66Zm26.77-38.19l-8.72,.31c-.1,2.59-.1,4.88,0,6.85,2.7-.1,5.6-.21,8.72-.52v-6.64Zm17.85,49.4c-1.35,.73-2.8,.62-4.25-.31-.62-.31-1.35-1.04-2.18-2.08-1.14-1.35-1.87-2.28-2.18-2.59-2.28-2.28-5.29-4.36-9.03-6.23-1.76-.93-2.49-1.66-2.18-2.08,.31-.31,1.35-.31,3.11,0,2.18,.42,5.19,.83,8.92,1.87,6.54,1.76,9.75,4.46,9.75,7.37,0,1.97-.62,3.32-1.97,4.05Z"/><path d="M341.23,63.51c-3.84,3.84-7.78,6.64-11.93,8.41-3.63,1.56-7.16,2.8-10.58,3.53-4.05,.93-7.37,1.45-9.96,1.56-1.25,.1-1.87-.21-1.87-.83,0-.52,.62-.93,1.87-1.25,3.84-.93,6.85-1.87,9.03-2.59,3.42-1.25,6.64-2.8,9.65-4.57,6.43-3.63,10.48-8.51,12.25-14.53,.93-3.22,1.35-6.23,1.35-9.13,0-4.36-.93-8.51-2.8-12.35-1.97-4.15-4.77-7.16-8.41-9.24-2.8-1.56-6.12-2.49-10.17-2.49-1.04,0-1.97,.1-2.8,.21,.83,1.56,1.45,2.91,1.97,3.84,.73,1.66,1.04,3.22,1.04,4.67,0,2.08-.31,4.05-1.04,5.92-2.59,6.95-4.88,12.14-7.06,15.57-3.22,5.08-6.75,9.75-10.79,14.01-.93,1.04-2.28,2.18-4.05,3.32-1.04,.73-1.97,1.04-2.8,1.04-2.18,0-4.05-2.18-5.6-6.64-.83-2.39-1.35-4.98-1.87-7.89-.42-2.8-.73-5.4-.73-7.58,0-1.87,.1-3.94,.42-6.12,.62-4.25,3.11-8.41,7.37-12.25s9.13-6.64,14.84-8.41c3.63-1.14,7.37-1.66,11-1.66,3.42,0,6.85,.52,10.27,1.45,4.67,1.35,8.51,3.74,11.73,7.16,2.59,2.8,4.36,6.02,5.5,9.75,.93,3.22,1.35,6.02,1.35,8.61,0,7.58-2.39,13.7-7.16,18.47Zm-26.15-42.96c-4.46,.52-8.51,1.97-12.14,4.36-4.05,2.7-7.16,5.81-9.24,9.24-1.45,2.49-2.18,5.81-2.18,10.07,0,3.11,.42,6.43,1.25,9.96,.73,3.01,1.66,4.46,3.01,4.46,1.14,0,2.7-.93,4.57-2.7,2.7-2.49,5.19-5.71,7.58-9.65,5.19-8.61,7.78-16.19,7.78-22.52,0-.93-.21-1.97-.62-3.22Z"/><path d="M413.46,12.56c-.1,1.45-.1,2.8-.1,4.05,.1,1.45,.21,3.63,.31,6.43,.1,2.91,.1,5.08,.1,6.54,.1,2.49-.73,4.36-2.28,5.6-1.14,.83-2.18,1.25-3.32,1.25-.83,0-1.25-.83-1.25-2.49v-2.49c-6.02,.31-10.9,.62-14.74,.93-.1,10.38-.42,19.09-.83,26.25-.21,4.05-.31,10.17-.93,18.26-.1,1.56-1.04,3.22-2.59,5.08-1.66,2.08-3.22,3.11-4.57,3.01-.83,0-1.25-.62-1.14-1.87,.21-1.14,.52-2.7,.73-4.88,2.59-21.69,3.74-41.51,3.42-59.67,0-2.08-.21-5.08-.42-8.92-.1-1.04-.21-2.8-.42-5.19,3.11,1.14,5.5,2.28,7.26,3.22l14.01-.42,3.11-3.63c.73,.52,1.87,1.35,3.53,2.7,.93,.83,1.97,1.97,3.01,3.32,0,.83-.93,1.76-2.91,2.91Zm-6.54-2.39c-.73,0-5.71,.21-14.74,.62v7.58c2.28-.1,3.94-.21,5.08-.42,1.87-.21,3.53-.62,4.88-1.14,1.56,1.56,2.39,2.59,2.28,3.01-.1,.42-.83,.62-2.39,.73-2.28,.1-5.6,.31-9.86,.62v7.78c4.57-.21,9.44-.52,14.74-.83V10.17Zm28.95,35.08c-.62,.62-1.35,1.25-2.28,1.87l.1,8.2c.1,6.75,.1,11.42,.21,13.8,.1,2.08,.1,3.53-.1,4.36-.21,1.04-.93,2.08-2.08,3.11-1.14,1.04-2.18,1.56-3.11,1.56-.73,0-1.04-1.35-1.04-4.15,0-1.04,0-2.28,.1-3.84-1.76,.1-7.37,.31-16.6,.83v2.18c0,1.14-.42,2.18-1.14,3.32-.93,1.35-2.08,1.97-3.42,1.87-.73,0-1.04-1.04-.93-3.01,.1-2.39,.21-3.74,.21-4.05l-.1-16.4c0-1.76-.1-4.77-.42-9.03-.1-1.35-.21-3.42-.42-6.23,.83,.42,2.18,1.14,4.05,2.08,.52,.21,1.14,.52,2.08,1.04,1.97-.1,4.36-.21,7.37-.42l8.72-.52c.1-.21,1.04-1.25,2.7-3.22,1.04,.52,2.49,1.45,4.46,2.59,1.56,1.25,2.39,2.08,2.49,2.49,0,.52-.31,1.04-.83,1.56Zm-8.09,21.48v-12.14c.1-1.14,.21-2.7,.1-4.88,0-2.08-.1-3.63-.1-4.57-7.58,.31-13.39,.62-17.43,1.04,.1,1.76,.21,4.67,.31,8.51,2.8-.1,4.98-.21,6.75-.42,2.7-.31,4.88-.73,6.43-1.25,1.35,1.76,2.08,2.91,1.97,3.42-.1,.31-.62,.52-1.76,.62-3.01,.21-7.37,.52-13.28,.83,.1,2.18,.1,5.29,.21,9.55l16.81-.73Zm28.75-57.7c-.73,.52-1.35,1.04-1.87,1.45-.1,1.35-.21,4.88-.1,10.48,0,2.08,.1,5.19,.31,9.34,.21,4.25,.31,7.37,.31,9.44,.21,6.33,.31,15.77,.73,28.33,0,1.76,.31,4.46,.42,8.09,0,1.76-.1,3.22-.31,4.46-.31,1.76-1.45,3.42-3.42,5.08-1.97,1.56-3.63,2.28-4.98,2.39-.62,0-1.04-.62-1.35-1.87-.21-.83-.42-1.66-.62-2.59-.21-.52-1.76-1.87-4.77-3.84-1.56-1.04-2.28-1.87-2.18-2.49,0-.52,1.25-.73,3.63-.62,3.22,.1,5.08-.21,5.71-.73,.31-.31,.42-1.25,.42-2.8-.21-9.55-.31-23.87-.62-42.86-6.02,.31-11.73,.62-17.12,1.04-.1,.62-.21,1.14-.52,1.56-.31,.42-.93,.93-1.87,1.45-.93,.62-1.76,.93-2.28,.93-.62,0-.93-.62-.93-1.97,0-.42,0-1.04,.1-1.76v-1.66c0-9.03,.42-14.63,.31-16.92,0-2.08-.21-5.5-.52-10.27,.52,.31,1.66,.93,3.63,1.87,1.14,.52,2.08,1.14,2.91,1.76l16.29-1.14c.73-.83,1.76-2.18,3.32-3.94l3.74,2.8c1.76,1.35,2.59,2.49,2.59,3.42,0,.52-.31,1.04-.93,1.56Zm-8.82,5.71c0-1.76,.1-4.05,.1-6.64-6.85,.42-12.76,.83-17.75,1.25l.31,7.58c1.76-.1,4.25-.21,7.58-.73,1.76-.21,3.22-.73,4.36-1.14,1.66,1.87,2.49,3.01,2.39,3.32-.21,.42-1.14,.62-2.7,.73-2.18,.1-6.02,.52-11.52,1.04,.1,2.91,.1,5.5,.21,7.89,3.84-.31,9.55-.62,17.12-1.04l-.1-12.25Z"/><path d="M530.11,58.74h-26.36v-5.6h26.36v5.6Z"/></g></g></svg>